<?xml version="1.0" encoding="UTF-8"?>
<svg width="28px" height="28px" viewBox="0 0 28 28" version="1.1" xmlns="http://www.w3.org/2000/svg" xmlns:xlink="http://www.w3.org/1999/xlink">
    <!-- Generator: Sketch 52.5 (67469) - http://www.bohemiancoding.com/sketch -->
    <title>X</title>
    <desc>Created with Sketch.</desc>
    <g id="Next_Website" stroke="none" stroke-width="1" fill="none" fill-rule="evenodd">
        <g id="Next_Website_Menu" transform="translate(-1291.000000, -91.000000)" fill="#FFFFFF">
            <g id="Menu" transform="translate(1178.000000, 90.000000)">
                <g id="X" transform="translate(112.000000, 0.000000)">
                    <path d="M15,-3.52941176 L15,-3.52941176 C16.4619302,-3.52941176 17.6470588,-2.34428316 17.6470588,-0.882352941 L17.6470588,30.8823529 C17.6470588,32.3442832 16.4619302,33.5294118 15,33.5294118 L15,33.5294118 C13.5380698,33.5294118 12.3529412,32.3442832 12.3529412,30.8823529 L12.3529412,-0.882352941 C12.3529412,-2.34428316 13.5380698,-3.52941176 15,-3.52941176 Z" id="Rectangle" transform="translate(15.000000, 15.000000) rotate(-45.000000) translate(-15.000000, -15.000000) "></path>
                    <path d="M15,-3.52941176 L15,-3.52941176 C16.4619302,-3.52941176 17.6470588,-2.34428316 17.6470588,-0.882352941 L17.6470588,30.8823529 C17.6470588,32.3442832 16.4619302,33.5294118 15,33.5294118 L15,33.5294118 C13.5380698,33.5294118 12.3529412,32.3442832 12.3529412,30.8823529 L12.3529412,-0.882352941 C12.3529412,-2.34428316 13.5380698,-3.52941176 15,-3.52941176 Z" id="Rectangle-Copy" transform="translate(15.000000, 15.000000) rotate(-315.000000) translate(-15.000000, -15.000000) "></path>
                </g>
            </g>
        </g>
    </g>
</svg>